<svg width="326" height="352" viewBox="0 0 326 352" fill="none" xmlns="http://www.w3.org/2000/svg">
<path fill-rule="evenodd" clip-rule="evenodd" d="M153.68 51.2832C158.084 48.4097 161.385 42.555 156.172 36.3258C164.419 30.4289 166.833 16.4201 160.093 8.01702C157.068 4.35 152.881 1.75196 148.18 0.624663C143.48 -0.502637 138.527 -0.0964024 134.088 1.78055C129.265 4.0237 125.075 7.36928 121.879 11.5298C121.879 11.5298 121.816 2.80163 114.751 1.1679C107.686 -0.465837 101.316 6.81467 97.8848 12.7176C94.4539 18.6206 93.2404 27.8683 94.3604 32.656C92.9153 29.8573 91.1574 28.1849 89.5553 28.9909C87.9532 29.7969 88.0429 32.894 89.6226 35.5247C87.04 35.3349 83.9703 34.622 83.1655 37.3022C82.3607 39.9824 84.587 42.7278 87.7526 43.3743C86.2988 50.1062 87.724 59.9195 90.5046 65.234C93.2853 70.5484 98.8815 75.0315 101.959 75.9717C105.036 76.9118 149.28 54.1604 153.682 51.288L153.68 51.2832Z" fill="#00092F"/>
<path fill-rule="evenodd" clip-rule="evenodd" d="M118 303L178 301.1L175.635 295L120.688 296.857L118 303Z" fill="#464646"/>
<path fill-rule="evenodd" clip-rule="evenodd" d="M140.048 250.101C140.817 258.419 146.115 318.177 146.934 324.422C147.753 330.667 151.576 334.088 151.945 327.206C152.314 320.323 156 251.183 156 251.183L148.322 242C148.322 242 139.277 241.794 140.046 250.106L140.048 250.101Z" fill="#2C2C2C"/>
<path fill-rule="evenodd" clip-rule="evenodd" d="M131.476 248.675C127.596 257.477 107.349 318.732 105.662 324.758C103.975 330.783 105.603 335.839 109.532 327.961C113.461 320.084 144 249.646 144 249.646C144 249.646 135.355 239.874 131.476 248.675V248.675Z" fill="#464646"/>
<path fill-rule="evenodd" clip-rule="evenodd" d="M152.368 248.129C154.728 252.86 177.018 307 177.018 307L184 304.036C184 304.036 167.681 258.455 163.711 247.845C159.741 237.236 150.005 243.404 152.364 248.129H152.368Z" fill="#464646"/>
<path fill-rule="evenodd" clip-rule="evenodd" d="M107.144 105.154C99.6043 104.631 90.8253 105.062 83.1086 112.556C72.8851 122.122 66.8032 135.172 66.1201 149.008C65.1534 166.44 70.0517 194.3 79.7131 215.506C89.3745 236.712 98.259 245.171 113.645 248.923C129.032 252.674 175.765 250.116 189.875 250.523C203.986 250.93 177.365 209.329 177.365 209.329L134.194 175.966C134.194 175.966 114.685 105.672 107.14 105.153L107.144 105.154Z" fill="#FFD853"/>
<path fill-rule="evenodd" clip-rule="evenodd" d="M123.421 101.174C113.964 102.61 104.854 105.708 96.5318 110.316C88.6178 114.752 76 131.943 76 131.943L95.2702 147.723L93.4437 183L168.93 179.563L172.179 148.962C177.638 147.565 182.975 145.744 188.136 143.518C196.4 139.917 200 136.59 200 136.59C200 136.59 191.013 119.696 186.809 113.368C182.605 107.039 172.923 102.168 160.743 100.977C154.39 100.282 148 99.9571 141.607 100.005C135.526 100.097 129.453 100.489 123.412 101.177L123.421 101.174Z" fill="#78E8FD"/>
<path fill-rule="evenodd" clip-rule="evenodd" d="M102.537 129.826C105.174 142.314 104.808 161.344 107.819 163.333C110.831 165.321 130.977 158.95 141.54 156.332C153.46 153.378 166.093 147.841 167.729 146.567C169.366 145.294 169.942 135.7 169.366 130.266C170.752 136.293 171.619 142.419 171.959 148.582C172.092 154.46 171.902 160.341 171.387 166.199L92 173C92 173 99.8992 117.338 102.537 129.826V129.826Z" fill="#37A4B9"/>
<path fill-rule="evenodd" clip-rule="evenodd" d="M123.889 97.9465C120.244 98.6385 116.077 99.7417 116.001 102.583C115.925 105.425 119.745 110.427 122.561 114.477C125.376 118.527 128.301 123.163 130.13 122.996C131.959 122.829 135.592 109.769 135.592 109.769C135.592 109.769 142.589 121.552 144.762 121.199C146.934 120.846 150.263 111.97 151.333 107.559C152.404 103.147 152.07 99.5409 151.146 97.9514C150.221 96.3618 147.057 95.4207 141.304 96.3969C135.551 97.3731 127.535 97.2546 123.89 97.9453L123.889 97.9465Z" fill="#37A4B9"/>
<path fill-rule="evenodd" clip-rule="evenodd" d="M149.149 35.9117C152.844 46.0032 157.772 64.5773 153.082 75.8776C148.392 87.178 140.881 91.4586 140.881 91.4586L142.201 99.4733L135.94 110L123.919 100.683L124.228 90.4081C118.539 89.6314 113.373 86.768 109.795 82.4079C102.94 74.2674 98.1533 65.9541 98 59.2426C104.673 56.808 110.007 54.5921 119.5 46.3006C125.879 40.4885 131.581 34.0164 136.507 27C141.268 29.1617 145.559 32.1866 149.149 35.9117Z" fill="#E88D95"/>
<path fill-rule="evenodd" clip-rule="evenodd" d="M99.8638 63.2425C106.833 65.0544 107.693 75.4057 107.693 75.4057C107.693 75.4057 118 83.4055 118 89C112.989 86.5968 108.768 82.8607 105.816 78.2176C101.442 71.517 92.3756 61.295 99.8638 63.2425Z" fill="#DA6771"/>
<path fill-rule="evenodd" clip-rule="evenodd" d="M172.102 148.706L172.203 153.763C172.203 153.763 160.229 156.544 149.169 159.293C141.883 161.182 134.761 163.613 127.867 166.566C127.867 166.566 117.05 165.9 109.997 166.307C102.944 166.714 94.1533 172.555 92.3703 174.711C90.5873 176.867 95.4875 175.666 101.826 175.666C108.165 175.666 189.834 176.518 199.781 175.016C209.727 173.514 207.288 162.714 204.768 157.228L196.396 139C192.395 141.169 188.28 143.135 184.066 144.89C180.49 146.174 172.107 148.71 172.107 148.71L172.102 148.706Z" fill="#E88D95"/>
<path fill-rule="evenodd" clip-rule="evenodd" d="M173.859 153.609C175.756 153.746 183.527 153.958 187 155C182.502 152.226 177.411 150.19 172 149L172.105 153.503C172.105 153.503 172.245 153.495 173.863 153.609H173.859Z" fill="#DA6771"/>
<path fill-rule="evenodd" clip-rule="evenodd" d="M109 167C105.768 168.306 103.069 170.521 101.291 173.327C101.019 173.722 100.857 174.172 100.819 174.638C100.781 175.105 100.868 175.572 101.073 176H89.4184C87.473 176 92.6848 172.81 97.3513 170.405C100.896 168.462 104.881 167.297 108.995 167H109Z" fill="#DA6771"/>
<path fill-rule="evenodd" clip-rule="evenodd" d="M74.2404 158.668C75.8321 148.133 83.8159 134.542 90.6387 120.719C97.4615 106.895 104.894 91.8314 104.894 91.8314C104.894 91.8314 99.6459 84.2967 97.812 79.6779C95.9781 75.0591 95.8317 64.3502 97.812 63.194C99.7923 62.0378 103.118 66.3235 104.389 68.7844C105.659 71.2453 106.22 76.5255 106.22 76.5255C108.871 78.5109 111.352 80.7055 113.638 83.0874C116.959 86.649 117.745 88.7598 116.325 90.5086L113.09 94.5059C113.09 94.5059 109.226 116.679 106.422 130.796C103.618 144.913 100.368 161.266 99.4233 166.026C98.4787 170.786 92.8342 175.192 88.2685 175.922C83.7028 176.652 72.1753 172.343 74.2466 158.672L74.2404 158.668Z" fill="#E88D95"/>
<path fill-rule="evenodd" clip-rule="evenodd" d="M236.052 322.007C236.955 324.808 240.245 331.674 240.245 331.674C240.245 331.674 238.483 335.24 239.82 338.338C241.157 341.437 252.185 342.321 256.865 341.903C261.546 341.485 260.978 331.276 260.978 331.276L249.831 328.76L245.643 319C245.643 319 235.15 319.207 236.055 322.007H236.052Z" fill="#E88D95"/>
<path fill-rule="evenodd" clip-rule="evenodd" d="M258.142 341.675C258.171 338.454 258.804 335.266 260.011 332.276C261.971 327.667 264.329 326.017 264.329 326.017C264.329 326.017 273.982 325.324 277.811 332.777C281.64 340.229 279.572 347.77 278.154 349.025C276.736 350.28 269.877 350.349 260.97 349.081C252.063 347.812 239.656 348.616 239.036 343.452C238.55 339.349 243.097 339.348 245.926 339.785L258.141 341.675H258.142Z" fill="#ABF9FF"/>
<path fill-rule="evenodd" clip-rule="evenodd" d="M170.224 312L166.475 320.631C166.475 320.631 161.03 319.876 160.052 324.158C159.073 328.441 172.34 338 172.34 338L180 334.082L174.018 323.643L178.418 316.58L170.224 312Z" fill="#E88D95"/>
<path fill-rule="evenodd" clip-rule="evenodd" d="M172.021 336.299C173.836 334.833 175.859 333.628 178.027 332.722C180.3 331.74 182.825 331.451 185.271 331.892C186.675 332.75 187.84 333.931 188.663 335.331C189.487 336.73 189.943 338.304 189.992 339.915C190.217 345.532 185.472 349.446 183.447 351.18C181.422 352.915 179.975 351.67 177.474 349.549C174.973 347.428 157.26 330.909 154.861 328.487C152.462 326.064 155.56 321.724 158.24 323.359C160.92 324.995 172.011 336.299 172.011 336.299H172.021Z" fill="#ABF9FF"/>
<path fill-rule="evenodd" clip-rule="evenodd" d="M199.391 186.912C210.924 191.319 237.794 196.83 242.6 208.003C247.407 219.175 238.976 232.503 230.348 246.879C221.719 261.256 180.27 320 180.27 320L165.961 312.256C165.961 312.256 189.268 245.079 191.534 238.514C193.799 231.95 134 187.113 134 187.113C134 187.113 187.855 182.498 199.391 186.908V186.912Z" fill="#616161"/>
<path fill-rule="evenodd" clip-rule="evenodd" d="M107.756 188.651C105.57 194.602 103.732 205.6 106.131 213.185C108.53 220.769 112.921 229.056 130.727 231.535C148.533 234.014 176.775 240.166 180.325 241.022C183.875 241.879 190.258 255.298 200.296 271.699L232.906 325L250 319.77C250 319.77 240.031 283.051 234.401 261.052C228.77 239.054 222.642 218.985 213.476 210.97C204.311 202.955 154.929 188.645 154.929 188.645C154.929 188.645 109.94 182.694 107.756 188.645V188.651Z" fill="#8B8B8B"/>
<path fill-rule="evenodd" clip-rule="evenodd" d="M25.0327 192.765C22.05 205.656 11.4586 276.669 8.59458 291.501C5.73055 306.333 5.52687 317.544 4.16609 325.067C2.8053 332.59 10.179 337.563 12.7032 326.74L44 192.627C44 192.627 28.0142 179.875 25.0327 192.765Z" fill="#464646"/>
<path fill-rule="evenodd" clip-rule="evenodd" d="M304.443 190.922C307.498 204.165 318.354 277.123 321.293 292.361C324.231 307.599 324.436 319.117 325.83 326.849C327.224 334.582 319.666 339.686 317.078 328.568C314.49 317.449 296.133 238.602 292.726 223.962C289.318 209.322 285 190.782 285 190.782C285 190.782 301.386 177.68 304.443 190.922V190.922Z" fill="#464646"/>
<path fill-rule="evenodd" clip-rule="evenodd" d="M0.00593482 188.632C-0.0599681 190.884 0.23473 195.32 11.0018 194.982C21.7688 194.644 128.662 194.471 169.699 193.167C210.735 191.862 309.236 193.299 315.78 193.365C322.325 193.43 325.68 192.768 325.768 188.632C325.856 184.497 325.942 180.631 325.999 177.962C326.056 175.293 323.272 175.298 318.593 175.298C313.914 175.298 269.785 174.628 238.538 175.298C207.292 175.968 79.2088 175.964 53.2779 175.964H9.39275C4.87032 175.964 0.173802 175.612 0.150177 180.826C0.126551 186.04 0.0681074 186.382 0.00593482 188.632Z" fill="#E6E6E6"/>
<path fill-rule="evenodd" clip-rule="evenodd" d="M162.707 164.003C161.048 163.957 159.432 164.512 158.188 165.555C156.944 166.599 156.165 168.052 156.009 169.62C155.84 172.658 158.102 175.988 163.155 176C168.208 176.011 210 175.677 210 175.677L209.585 164.13C209.585 164.13 167.573 164.248 162.707 164.003V164.003Z" fill="#8B8B8B"/>
<path fill-rule="evenodd" clip-rule="evenodd" d="M217.872 124.086C219.46 120.955 222.972 116.606 232.054 117.029C241.135 117.452 280.755 117.416 288.919 117.416C297.084 117.416 300.489 121.585 296.019 128.803C291.549 136.021 276.96 162.319 274.573 166.174C272.186 170.029 265.704 175.205 258.981 175.295C252.259 175.384 204.299 176.049 199.9 175.997C195.501 175.946 192.888 170.453 197.217 163.949C201.546 157.445 216.089 127.605 217.868 124.086H217.872Z" fill="#E6E6E6"/>
<path fill-rule="evenodd" clip-rule="evenodd" d="M248.388 145.457C247.914 143.013 243.422 140.567 240.776 143.013C238.129 145.459 237.109 154.166 238.896 156.821C240.682 159.476 245.513 156.441 245.513 156.441C245.891 157.179 246.461 157.805 247.165 158.254C247.868 158.703 248.681 158.96 249.518 158.997C252.437 159.135 256.317 154.405 257.622 149.346C258.927 144.287 256.627 143.013 254.164 143.013C253.079 142.978 251.999 143.178 251 143.6C250.002 144.023 249.11 144.656 248.388 145.457V145.457Z" fill="white"/>
<path fill-rule="evenodd" clip-rule="evenodd" d="M250 138.685C251.191 134.778 255.422 133.682 259 134.075C258.118 138.57 252.762 139.624 250 138.685Z" fill="white"/>
<path fill-rule="evenodd" clip-rule="evenodd" d="M124.953 53.1542C126.21 52.4473 127.396 54.3186 127.728 55.7683C128.061 57.2179 128.326 59.5306 127.015 59.9473C125.705 60.364 124.374 58.2112 124.189 56.9711C124.004 55.731 123.644 53.8957 124.953 53.1591V53.1542Z" fill="#1A1A1A"/>
<path fill-rule="evenodd" clip-rule="evenodd" d="M141.269 48.08C142.495 47.6828 144.134 48.8066 144.696 50.5239C145.258 52.2411 145.095 54.0803 143.742 54.832C142.389 55.5838 140.889 53.6503 140.349 52.2398C139.81 50.8293 139.742 48.5728 141.269 48.08V48.08Z" fill="#1A1A1A"/>
<path d="M136.367 36.7437C137.599 31.8642 141.026 32.0757 143 35.5278M136.918 57.6443C138.147 58.9405 141.504 60.6841 141.582 61.5997C141.691 62.9105 139.683 64.5095 139.683 64.5095L136.918 57.6443ZM132.398 76C132.923 75.0273 135.967 74.0545 138.383 74.3901L132.398 76ZM120 51.0126C121.762 48.6185 124.349 46.7119 126.972 47.8755L120 51.0126Z" stroke="#1A1A1A" stroke-width="1.587" stroke-linecap="round" stroke-linejoin="round"/>
<path fill-rule="evenodd" clip-rule="evenodd" d="M140.669 92C137.08 94.1584 131 93.1294 131 93.1294L142 100C142 100 141.029 94.9988 140.669 92Z" fill="#DA6771"/>
</svg>
